Coordinates
version=1
nRows=20
nColumns=38
inDegrees=no

Units are S.I. units (second, meters, Newtons, ...)
If the header above contains a line with 'inDegrees', this indicates whether rotational values are in degrees (yes) or radians (no).

endheader
time	pelvis_tilt	pelvis_list	pelvis_rotation	pelvis_tx	pelvis_ty	pelvis_tz	hip_flexion_r	hip_adduction_r	hip_rotation_r	knee_angle_r	ankle_angle_r	subtalar_angle_r	mtp_angle_r	hip_flexion_l	hip_adduction_l	hip_rotation_l	knee_angle_l	ankle_angle_l	subtalar_angle_l	mtp_angle_l	lumbar_extension	lumbar_bending	lumbar_rotation	arm_flex_r	arm_add_r	arm_rot_r	elbow_flex_r	pro_sup_r	wrist_flex_r	wrist_dev_r	arm_flex_l	arm_add_l	arm_rot_l	elbow_flex_l	pro_sup_l	wrist_flex_l	wrist_dev_l
20	2.81769	1.35351	-1.19081	0.637309	-0.297596	0.951722	-0.0428952	-0.0181366	-0.0352421	0.513289	-0.163381	0	0	-0.0866877	-0.0902953	-0.0959244	0.425836	-0.145485	0	0	-0.328836	0.0731926	0.0863391	0.322037	-0.550198	-0.0061876	1.61988	1.5708	0	0	0.687832	-0.363791	0.590238	1.36192	1.5708	0	0
20.01	2.83155	1.35093	-1.20407	0.638326	-0.295719	0.951814	-0.0472539	-0.0192865	-0.0365358	0.506157	-0.175452	0	0	-0.0919009	-0.0897105	-0.0952123	0.4268	-0.14583	0	0	-0.330083	0.071514	0.0849841	0.326079	-0.551876	0.00305791	1.61668	1.5708	0	0	0.690017	-0.365013	0.590959	1.35705	1.5708	0	0
20.02	2.85158	1.34778	-1.22331	0.639377	-0.293761	0.951756	-0.0528118	-0.0224018	-0.0422496	0.504092	-0.185189	0	0	-0.0982229	-0.0881056	-0.0962128	0.428295	-0.144455	0	0	-0.330886	0.068547	0.0834968	0.330024	-0.550249	0.00944539	1.61179	1.5708	0	0	0.692365	-0.365419	0.592183	1.35027	1.5708	0	0
20.03	2.87685	1.34421	-1.24765	0.640568	-0.291696	0.951625	-0.0602102	-0.0266688	-0.0499614	0.504446	-0.18834	0	0	-0.10576	-0.0854431	-0.0974959	0.429431	-0.142464	0	0	-0.332023	0.0640611	0.0817847	0.333872	-0.547588	0.0148235	1.60654	1.5708	0	0	0.694674	-0.36623	0.593656	1.34383	1.5708	0	0
20.04	2.90246	1.3403	-1.27283	0.641942	-0.28948	0.951456	-0.0697004	-0.0305938	-0.0575593	0.503873	-0.18569	0	0	-0.114126	-0.0828272	-0.0998911	0.430364	-0.140033	0	0	-0.332864	0.0588913	0.0806702	0.337044	-0.544511	0.0199992	1.60119	1.5708	0	0	0.696808	-0.367239	0.595395	1.33725	1.5708	0	0
20.05	2.92544	1.33593	-1.29592	0.643502	-0.287167	0.951342	-0.0806736	-0.0332319	-0.0632532	0.501834	-0.180575	0	0	-0.123311	-0.0809224	-0.103101	0.430539	-0.13788	0	0	-0.333504	0.0537	0.0804938	0.339414	-0.541677	0.0254057	1.59594	1.5708	0	0	0.698852	-0.368189	0.597626	1.33024	1.5708	0	0
20.06	2.94551	1.3306	-1.31622	0.645192	-0.284817	0.951411	-0.0937016	-0.0343576	-0.067637	0.496086	-0.176683	0	0	-0.133831	-0.0799098	-0.106674	0.429352	-0.136727	0	0	-0.334903	0.0490468	0.0809458	0.341384	-0.538785	0.0303203	1.59062	1.5708	0	0	0.700579	-0.369048	0.599922	1.32338	1.5708	0	0
20.07	2.95349	1.32935	-1.32686	0.647217	-0.28288	0.951406	-0.100229	-0.0326117	-0.063533	0.489994	-0.175047	0	0	-0.138925	-0.0800349	-0.108733	0.428036	-0.13634	0	0	-0.332482	0.0455036	0.084207	0.343151	-0.536093	0.0353144	1.58497	1.5708	0	0	0.702066	-0.369189	0.602073	1.31602	1.5708	0	0
20.08	2.9574	1.32761	-1.33253	0.649175	-0.280899	0.95158	-0.107914	-0.0293895	-0.0601926	0.48104	-0.175386	0	0	-0.144358	-0.0810877	-0.108167	0.426302	-0.136004	0	0	-0.330002	0.0434283	0.0870507	0.344468	-0.533241	0.0399373	1.5789	1.5708	0	0	0.703004	-0.368647	0.604032	1.30806	1.5708	0	0
20.09	2.95836	1.32347	-1.33435	0.650993	-0.278892	0.952066	-0.119091	-0.0249539	-0.0584981	0.469352	-0.177674	0	0	-0.152491	-0.0833454	-0.106027	0.423436	-0.136033	0	0	-0.329878	0.0432235	0.0894207	0.345839	-0.530608	0.0441604	1.57299	1.5708	0	0	0.703585	-0.367533	0.605384	1.30008	1.5708	0	0
20.1	2.95681	1.31641	-1.33325	0.652771	-0.276841	0.95289	-0.135187	-0.019035	-0.0564098	0.45337	-0.182392	0	0	-0.164393	-0.0871212	-0.103922	0.418671	-0.137077	0	0	-0.332535	0.0449652	0.0912544	0.348168	-0.527927	0.049255	1.56681	1.5708	0	0	0.703556	-0.366388	0.605566	1.29196	1.5708	0	0
20.11	2.95345	1.30884	-1.32992	0.654481	-0.274747	0.953803	-0.152951	-0.0125513	-0.0535558	0.435517	-0.188458	0	0	-0.177005	-0.0915862	-0.101624	0.413078	-0.138849	0	0	-0.335654	0.0473327	0.0925752	0.350418	-0.52514	0.0541871	1.56058	1.5708	0	0	0.703118	-0.365175	0.605191	1.28428	1.5708	0	0
20.12	2.95037	1.30139	-1.32688	0.656143	-0.272622	0.954705	-0.171545	-0.00634381	-0.0497715	0.416148	-0.194879	0	0	-0.189611	-0.0960024	-0.100017	0.407213	-0.140949	0	0	-0.338451	0.0496033	0.0936779	0.352759	-0.522051	0.0590113	1.5539	1.5708	0	0	0.702433	-0.363961	0.604739	1.27671	1.5708	0	0
20.13	2.94687	1.29436	-1.32356	0.657756	-0.270452	0.955539	-0.190452	-0.000311432	-0.0456728	0.394945	-0.20203	0	0	-0.201576	-0.10058	-0.0997204	0.401997	-0.142008	0	0	-0.340402	0.0523177	0.0934457	0.35711	-0.518545	0.0664458	1.54578	1.5708	0	0	0.699527	-0.363313	0.601386	1.27041	1.5708	0	0
20.14	2.94461	1.28906	-1.32118	0.659287	-0.268353	0.956228	-0.206223	0.00438714	-0.0439182	0.377741	-0.207109	0	0	-0.211493	-0.104257	-0.0984662	0.397105	-0.144192	0	0	-0.34123	0.0537709	0.0946006	0.358256	-0.515664	0.0700233	1.53983	1.5708	0	0	0.699234	-0.362182	0.602305	1.26373	1.5708	0	0
20.15	2.94293	1.28533	-1.31881	0.660714	-0.266286	0.956763	-0.219669	0.00823542	-0.0445964	0.362485	-0.211159	0	0	-0.219192	-0.107428	-0.0964628	0.393293	-0.145436	0	0	-0.340561	0.0549375	0.094555	0.359918	-0.512899	0.0743842	1.5335	1.5708	0	0	0.697836	-0.361414	0.601905	1.25794	1.5708	0	0
20.16	2.94144	1.28196	-1.31672	0.662157	-0.264151	0.957206	-0.232981	0.0119608	-0.0460679	0.346545	-0.215653	0	0	-0.226733	-0.110641	-0.0954065	0.389046	-0.146483	0	0	-0.33939	0.0558249	0.0941029	0.361752	-0.509803	0.0789308	1.52709	1.5708	0	0	0.69588	-0.36123	0.601047	1.2528	1.5708	0	0
20.17	2.93878	1.27866	-1.31429	0.663651	-0.262065	0.957569	-0.245684	0.0159586	-0.0463559	0.3312	-0.220288	0	0	-0.23427	-0.114129	-0.0956616	0.38475	-0.147084	0	0	-0.338292	0.0567136	0.0942146	0.364027	-0.506421	0.0833943	1.52037	1.5708	0	0	0.694156	-0.361374	0.600255	1.24794	1.5708	0	0
20.18	2.93662	1.27519	-1.31216	0.665122	-0.260125	0.9579	-0.25801	0.0199778	-0.0462307	0.316752	-0.224909	0	0	-0.241529	-0.117554	-0.0957209	0.381586	-0.147787	0	0	-0.337839	0.0574854	0.0941722	0.366634	-0.503234	0.0877627	1.51384	1.5708	0	0	0.6933	-0.361796	0.600006	1.24326	1.5708	0	0
20.19	2.9357	1.27177	-1.31072	0.666527	-0.258338	0.958195	-0.269733	0.0238267	-0.0458799	0.3035	-0.228974	0	0	-0.248424	-0.120626	-0.0956634	0.378625	-0.148456	0	0	-0.337933	0.0578156	0.0935514	0.369317	-0.499994	0.091701	1.50767	1.5708	0	0	0.69331	-0.362562	0.600307	1.2389	1.5708	0	0
